<svg xmlns="http://www.w3.org/2000/svg" viewBox="0 0 32 32">
  <circle cx="16" cy="16" r="16" fill="#111111"/>
  <path d="M13.655263157894737 7.8657894736842096C13.68421052631579 7.605263157894736 12.902631578947368 6.360526315789473 12.642105263157895 6.678947368421053C12.294736842105262 7.113157894736842 11.947368421052632 7.5473684210526315 11.571052631578947 7.981578947368421C11.05 6.8815789473684195 9.83421052631579 6.013157894736841 8.647368421052633 6.360526315789473C6.881578947368421 6.823684210526315 5.810526315789474 9.139473684210525 5.6947368421052635 10.760526315789473C5.636842105263158 11.513157894736842 5.752631578947368 13.105263157894736 6.736842105263158 13.626315789473683C8.386842105263158 14.46578947368421 10.760526315789473 11.715789473684211 11.80263157894737 9.978947368421052C11.628947368421052 11.368421052631579 11.513157894736842 11.83157894736842 11.194736842105264 13.25C8.126315789473685 16.347368421052632 6.302631578947369 20.63157894736842 5.86842105263158 24.944736842105264C5.839473684210526 25.292105263157893 5.810526315789474 25.639473684210525 5.897368421052632 25.986842105263158C6.1000000000000005 26.623684210526314 6.765789473684211 27.434210526315788 7.344736842105263 26.768421052631577C7.923684210526316 26.102631578947367 8.3 25.205263157894734 8.676315789473684 24.39473684210526C9.342105263157896 23.03421052631579 9.892105263157895 21.64473684210526 10.442105263157895 20.226315789473684C11.16578947368421 18.344736842105263 11.80263157894737 16.434210526315788 12.381578947368421 14.494736842105262C13.944736842105263 13.105263157894736 15.739473684210527 11.802631578947366 17.621052631578948 10.355263157894736C17.88157894736842 10.18157894736842 16.839473684210525 9.255263157894735 16.492105263157896 9.544736842105262C15.276315789473685 10.586842105263157 14.00263157894737 11.397368421052631 12.902631578947368 12.26578947368421C13.13421052631579 11.223684210526315 13.510526315789473 8.936842105263157 13.655263157894737 7.8657894736842096ZM7.113157894736842 12.439473684210526C6.968421052631579 10.5 7.721052631578948 8.328947368421051 9.313157894736843 7.6921052631578934C9.776315789473685 7.518421052631577 10.818421052631578 7.402631578947368 10.789473684210527 8.039473684210526C10.760526315789473 8.242105263157894 10.847368421052632 8.444736842105263 10.963157894736842 8.618421052631579C9.83421052631579 10.442105263157895 8.3 12.207894736842103 7.113157894736842 12.439473684210526ZM7.2 24.19210526315789C7.663157894736843 21.70263157894737 8.647368421052633 19.357894736842105 10.094736842105263 17.24473684210526C9.255263157894737 19.589473684210525 8.357894736842105 21.992105263157896 7.2 24.19210526315789Z" fill="#f5f0eb"/>
  <path d="M26.305263157894736 9.371052631578946C25.321052631578947 10.384210526315789 24.221052631578946 11.252631578947367 23.06315789473684 11.94736842105263C22.889473684210525 12.034210526315789 22.686842105263157 12.121052631578946 22.48421052631579 12.207894736842103C22.86052631578947 11.223684210526315 23.265789473684208 10.239473684210527 23.58421052631579 9.226315789473684C23.757894736842104 8.676315789473684 23.873684210526314 8.068421052631578 23.757894736842104 7.460526315789473C23.642105263157895 6.852631578947367 23.121052631578948 6.1 22.542105263157893 5.839473684210526C21.152631578947368 5.231578947368421 19.589473684210525 7.113157894736842 18.894736842105264 8.010526315789473C18.605263157894736 8.386842105263158 18.31578947368421 8.763157894736842 18.055263157894736 9.16842105263158C18.228947368421053 8.18421052631579 18.373684210526314 7.199999999999999 18.431578947368422 6.215789473684209C18.431578947368422 5.984210526315788 17.736842105263158 4.7973684210526315 17.44736842105263 5.028947368421052C16.955263157894738 5.376315789473683 16.434210526315788 5.78157894736842 15.826315789473684 6.042105263157895C15.594736842105263 6.157894736842104 16.405263157894737 7.489473684210525 16.78157894736842 7.315789473684211C16.810526315789474 7.2868421052631565 16.839473684210525 7.257894736842104 16.897368421052633 7.228947368421052C16.57894736842105 9.313157894736841 16.02894736842105 11.339473684210525 15.160526315789474 13.278947368421052C15.01578947368421 13.59736842105263 16.289473684210527 14.668421052631578 16.434210526315788 14.46578947368421C17.65 13.134210526315789 18.31578947368421 11.397368421052631 19.357894736842105 9.921052631578947C19.647368421052633 9.51578947368421 21.789473684210527 6.534210526315789 22.513157894736842 7.026315789473683C23.410526315789475 7.605263157894736 21.41315789473684 10.992105263157894 21.210526315789473 11.773684210526316C21.03684210526316 12.410526315789472 21.181578947368422 12.873684210526315 21.61578947368421 13.394736842105262C21.847368421052632 13.626315789473683 22.05 13.828947368421051 22.397368421052633 13.799999999999999C23.642105263157895 13.684210526315788 26.160526315789475 11.310526315789474 27.08684210526316 10.471052631578946C27.723684210526315 9.892105263157895 26.507894736842104 9.139473684210525 26.305263157894736 9.371052631578946Z" fill="#f5f0eb"/>
</svg>